<?xml version="1.0" standalone="no"?><svg xmlns="http://www.w3.org/2000/svg" viewBox="0 0 1440 320"><path fill="#ff5500" fill-opacity="1" d="M0,192L0,160L57.6,160L57.6,64L115.2,64L115.2,32L172.8,32L172.8,32L230.4,32L230.4,128L288,128L288,256L345.6,256L345.6,288L403.2,288L403.2,64L460.8,64L460.8,128L518.4,128L518.4,160L576,160L576,32L633.6,32L633.6,128L691.2,128L691.2,192L748.8,192L748.8,256L806.4,256L806.4,192L864,192L864,160L921.6,160L921.6,288L979.2,288L979.2,128L1036.8,128L1036.8,64L1094.4,64L1094.4,32L1152,32L1152,32L1209.6,32L1209.6,32L1267.2,32L1267.2,32L1324.8,32L1324.8,288L1382.4,288L1382.4,160L1440,160L1440,320L1382.4,320L1382.4,320L1324.8,320L1324.8,320L1267.2,320L1267.2,320L1209.6,320L1209.6,320L1152,320L1152,320L1094.4,320L1094.4,320L1036.8,320L1036.8,320L979.2,320L979.2,320L921.6,320L921.6,320L864,320L864,320L806.4,320L806.4,320L748.8,320L748.8,320L691.2,320L691.2,320L633.6,320L633.6,320L576,320L576,320L518.4,320L518.4,320L460.8,320L460.8,320L403.2,320L403.2,320L345.6,320L345.6,320L288,320L288,320L230.4,320L230.4,320L172.8,320L172.8,320L115.2,320L115.2,320L57.6,320L57.6,320L0,320L0,320Z"></path></svg>